#tb 0: 1/1
#media_type 0: video
#codec_id 0: rawvideo
#dimensions 0: 319x240
#sar 0: 1/1
0,          0,          0,        1,   306240, 0x6d67c11c
0,          1,          1,        1,   306240, 0xd2ab37a4
0,          2,          2,        1,   306240, 0x9fb8994d
0,          3,          3,        1,   306240, 0x1bbc0b88
0,          4,          4,        1,   306240, 0x42e87a81
